<svg width="644" height="243" viewBox="0 0 644 243" fill="none" xmlns="http://www.w3.org/2000/svg">
<path d="M223.767 0.389404H224.156L224.545 77.4431V91.0637L234.664 91.842L242.836 93.0095L252.565 95.3445L261.516 98.4578L270.466 102.739L277.86 107.408L284.476 112.468L289.535 116.359L301.988 126.477L310.161 131.926L317.166 135.817L323.392 138.152L333.51 140.487L340.515 141.655H344.796L351.801 140.876L360.751 138.541L367.367 135.428L372.426 131.926L377.096 127.645L380.988 123.364L384.879 117.916L388.382 111.3L390.717 104.684L392.273 98.4578L392.663 95.7336V83.2805L391.106 74.719L388.771 67.7141L385.658 61.8767L382.155 57.2068L377.096 52.1477L370.48 47.4778L363.865 44.3645L358.417 42.4187L353.747 41.2512L348.688 40.4729H340.904L333.121 41.6404L325.338 43.9753L314.052 49.4236L312.106 50.2019V91.0637L354.525 91.4529H365.811L365.421 93.7878L300.821 94.177L300.432 93.7878V0.778564H328.062L365.421 1.16772V2.33521L330.786 2.72437L320.279 3.11353H311.717L312.106 15.5667V46.6995L320.279 43.197L329.619 40.0837L337.013 38.5271L339.737 38.1379H350.244L358.417 39.6946L368.535 43.197L374.372 46.3103L379.042 49.8127L383.712 54.0935L387.214 58.3743L390.328 63.4333L393.441 70.4382L395.387 77.8323L396.554 85.2263V95.7336L394.608 104.684L392.273 111.3L389.549 117.137L386.436 122.975L382.544 128.034L377.485 133.093L372.426 136.595L366.2 140.098L360.362 142.433L354.525 143.99L347.131 145.157H338.569L330.786 143.99L321.446 141.655L314.831 138.93L308.215 135.039L301.599 130.369L295.373 125.31L289.924 121.029L284.087 116.359L276.304 110.522L269.299 105.852L265.407 103.517L255.678 99.2361L247.895 96.9011L239.723 95.3445L230.383 94.5662L213.26 93.7878L212.871 74.3298V2.72437L217.93 1.55688L223.767 0.389404Z" fill="#F9ECE0"/>
<path d="M607.479 115.191L610.203 121.029L617.598 140.487L622.656 153.719L628.494 168.896L636.666 190.3L642.893 206.645L643.671 208.59V209.758L637.056 208.201L630.829 206.255L628.883 202.363L622.268 185.24L615.263 167.339L606.701 145.157L600.475 129.201L597.75 122.586L596.972 122.196L595.805 125.699L590.745 138.152L581.405 162.669L583.74 163.059L589.967 165.782L594.248 168.507L598.14 172.009L600.475 174.733L603.977 180.57L606.312 186.408L607.479 191.856V201.585L605.923 207.812L602.81 214.038L599.307 219.098L596.193 222.6L590.745 226.491L584.519 229.604L578.292 231.551L574.4 232.329H567.007L561.559 231.161L554.554 228.826L548.327 225.713L543.657 222.211L538.987 217.93L533.928 212.871L529.647 207.423L524.199 200.418L520.308 194.97L517.194 191.078L512.913 185.63L509.411 181.349L504.741 176.29L501.628 173.177L496.568 169.285L494.623 168.117V206.255L487.618 208.59L482.947 209.758V115.581H507.465L533.928 115.97L540.154 117.138L545.992 119.083L549.884 121.029L553.775 124.143L555.721 126.088L558.445 129.201L560.391 133.482L561.559 138.152L561.947 143.211L561.169 149.049L559.224 154.886L556.499 159.556L552.997 163.447L547.549 166.95L540.933 169.674L535.484 171.23L530.036 172.009H516.026L506.298 170.452L503.185 170.063L505.52 172.787L509.8 177.457L513.303 181.738L518.361 187.965L521.864 192.635L525.756 197.693L530.426 203.92L534.706 208.979L537.431 212.093L541.711 216.763L545.992 220.654L551.829 224.546L558.056 227.27L563.894 229.216L567.785 229.994H575.179L581.405 228.438L587.632 225.713L591.523 223.378L594.637 221.043L598.14 216.763L601.642 210.536L603.588 204.698L604.366 201.196V192.245L602.81 185.63L599.696 179.014L595.805 173.955L592.302 170.842L587.632 168.117L581.405 165.782H580.238L573.622 181.349L563.504 206.645L561.947 209.368H560.391L560.78 207.812L569.342 185.24L574.79 170.452L578.292 161.502L583.74 147.492L591.523 127.256L595.805 116.359L596.583 115.191L601.253 114.803H605.533L607.479 115.191ZM498.515 117.916L493.845 118.305V126.478L494.233 161.112L494.623 163.837L500.071 165.782L508.243 168.117L516.026 169.285H525.756L530.426 168.507L535.484 166.95L540.933 163.837L544.046 160.724L546.771 156.442L548.716 151.772L549.884 146.324V138.152L549.494 135.817L547.938 129.979L546.381 127.256L542.879 123.364L537.431 119.861L532.371 118.305L522.643 117.916H498.515Z" fill="#F9ECE0"/>
<path d="M46.3101 115.581H54.0933L62.2656 116.748L70.0488 119.083L77.4429 122.586L82.1128 126.088L86.7827 130.369L90.6743 135.039L94.1768 141.265L96.5117 147.103L98.0684 153.329L98.8467 159.556V166.95L97.6792 173.566L94.9551 181.738L91.8418 187.575L87.9502 193.024L82.502 198.472L76.2754 202.753L71.9946 205.088L74.3296 208.201L78.2212 212.482L81.7236 216.762L86.0044 221.432L89.5068 225.324L93.0093 228.826L97.6792 232.329L103.517 235.831L109.354 238.166L115.191 239.723H121.807L128.423 237.777L134.26 234.664L137.763 231.94L140.098 229.994L143.989 224.935L145.935 225.324L144.378 228.048L141.265 231.94L136.984 235.831L133.482 238.166L128.034 240.501L122.196 242.058H113.635L105.462 239.723L98.8467 236.61L94.5659 233.496L90.6743 230.383L82.502 222.211L78.9995 217.93L73.5513 212.093L70.0488 207.812L68.8813 206.644L66.1572 207.033L56.4282 208.979L47.8667 209.368L39.3052 208.59L31.9111 206.644L25.6846 204.309L18.2905 200.029L14.3989 196.526L12.4531 194.58L8.95068 190.689L5.44824 184.851L2.72412 178.625L0.77832 171.231L0 165.782V159.556L0.77832 153.719L2.33496 147.492L4.66992 141.265L8.17236 135.039L13.2314 128.812L16.7339 125.699L22.5713 121.807L28.4087 119.083L36.9702 116.748L41.6401 115.97L46.3101 115.581ZM45.1426 118.305L38.916 119.472L34.2461 121.418L29.5762 124.142L25.6846 127.256L21.793 131.147L17.9014 136.985L14.7881 143.6L13.2314 148.659L12.064 154.497L11.6748 157.61V167.728L13.2314 176.29L15.9556 183.684L19.458 190.3L23.7388 195.748L28.0195 199.639L33.0786 202.753L37.3594 204.698L43.1968 206.255L49.0342 206.644L56.0391 205.866L63.0439 203.92L64.9897 202.753L62.6548 200.029L58.374 195.748L55.2607 193.024L49.0342 187.965L42.4185 183.295L38.916 180.96L39.3052 179.014L43.1968 180.96L47.8667 184.073L52.9258 187.965L57.9849 192.245L62.6548 196.526L66.5464 200.029L67.7139 201.196L69.2705 200.418L73.5513 196.915L77.832 192.245L81.3345 186.797L84.4478 179.792L86.0044 173.955L86.7827 169.285V156.832L85.6152 149.438L83.2803 141.655L80.5562 136.206L77.832 132.315L74.3296 128.423L70.438 124.921L64.6006 121.418L59.9307 119.472L54.0933 118.305H45.1426Z" fill="#F9ECE0"/>
<path d="M64.6006 0.778564H111.689L118.694 1.94604L124.531 3.89185L128.423 6.22681L133.482 10.5076L136.206 14.3992L137.763 18.2908L138.541 22.5715V28.0198L136.984 33.0789L134.649 36.9705L131.147 40.8621L128.034 43.5862L122.196 46.6995L120.25 47.0886V47.8669L122.196 48.2561L127.255 50.9802L132.314 55.261L135.428 59.1526L137.374 63.0442L138.541 67.7141V73.1624L136.984 78.6106L134.649 82.5022L131.147 86.3938L128.034 88.7288L122.585 91.4529L117.137 93.0095L111.689 93.7878L103.127 94.177H88.3394L64.6006 93.7878V0.778564ZM75.4971 3.11353L75.1079 3.50269L75.4971 79.3889L75.8862 91.0637L77.4429 91.4529H95.7334L107.408 91.0637L113.635 89.8962L117.916 87.5613L121.029 84.8372L123.364 81.7239L125.699 77.054L126.477 73.9407V66.9358L124.92 60.3201L122.196 55.6501L120.64 53.7043L116.359 50.5911L112.078 48.6453L109.354 47.8669L109.743 46.3103L113.246 45.1428L117.916 42.8079L120.64 40.4729L123.364 36.5813L125.31 32.6897L126.477 28.7981V21.0149L124.92 14.7883L122.585 10.8967L119.083 7.39429L113.635 4.28101L110.521 3.50269L106.241 3.11353H75.4971Z" fill="#F9ECE0"/>
<path d="M479.834 0.000244141L480.224 1.16772L475.554 7.78345L470.105 15.5667L465.046 22.5715L458.82 31.5222L453.761 38.5271L448.702 45.9211L443.643 52.926L438.194 60.7092L433.524 67.325L428.465 74.3298L422.239 83.2805L417.569 89.8962L416.791 91.0637L454.928 91.4529L479.056 91.842L478.667 93.3987L431.189 93.7878L419.125 94.177H401.224L402.002 92.2312L407.062 84.8372L412.121 77.8323L416.791 71.2166L422.239 63.4333L436.249 43.5862L441.308 36.5813L446.367 29.1873L451.426 22.1824L456.096 15.5667L461.155 8.56177L464.657 3.50269H453.761L428.854 3.11353L402.392 2.33521V0.778564H416.401L441.697 0.389404L479.834 0.000244141Z" fill="#F9ECE0"/>
<path d="M105.073 115.192L109.743 116.359L116.748 118.694L117.137 167.728L118.305 177.846L120.25 185.24L122.196 189.91L124.92 194.58L128.034 198.472L131.147 201.196L136.984 204.309L142.043 205.866L144.378 206.255H150.216L156.053 205.088L161.891 202.753L166.171 199.639L169.674 195.748L173.176 189.91L175.9 183.684L177.457 177.457L178.625 170.063L179.014 165.004L179.403 115.581H182.127V164.226L181.738 170.842L180.181 180.181L178.235 186.019L174.733 193.413L171.23 198.472L168.117 201.974L162.28 205.866L157.221 207.812L152.551 208.979L146.324 209.368L138.541 208.59L132.704 207.033L126.866 204.698L121.807 201.585L117.526 198.083L113.635 193.413L110.132 187.575L107.797 181.738L106.241 176.29L105.462 171.231L105.073 166.172V115.192Z" fill="#F9ECE0"/>
<path d="M400.835 115.192L404.337 115.97L412.121 118.694L412.51 119.083V156.053L412.899 168.507L413.677 175.901L415.234 182.906L417.569 189.132L420.293 194.191L423.406 198.083L426.909 201.196L431.579 203.92L437.416 205.866L440.14 206.255H446.367L451.815 205.088L456.874 203.142L460.766 200.418L463.101 198.472L466.992 193.413L470.105 187.186L472.051 182.127L473.997 172.398L474.775 164.615L475.165 115.581H477.889V165.004L477.11 173.955L475.943 180.181L473.608 187.186L470.495 193.413L467.381 198.083L463.879 201.974L458.042 205.866L451.815 208.201L447.923 208.979L442.086 209.368L434.692 208.59L428.465 207.033L422.239 204.309L417.569 201.585L413.288 198.083L409.007 193.024L405.505 186.797L403.17 180.96L401.613 173.955L400.835 166.561V115.192Z" fill="#F9ECE0"/>
<path d="M142.822 0.778564H179.403L208.201 1.16772V2.33521L182.127 2.72437L166.171 3.11353H154.497L154.886 45.9211L156.442 46.3103L200.417 46.6995L200.028 47.8669L154.886 48.2561V91.0637L165.004 91.4529L207.812 91.842V93.0095L174.344 93.3987L146.713 94.177H143.211L142.822 77.054V0.778564Z" fill="#F9ECE0"/>
<path d="M187.186 115.581H217.151L226.491 115.97L252.176 116.359V117.527L217.93 117.916L198.472 118.305V161.891L210.536 161.502H244.393V162.669H198.472L198.861 206.255L231.161 206.644L252.176 207.033L251.787 208.201L218.708 208.59L198.083 208.979H187.186V115.581Z" fill="#F9ECE0"/>
<path d="M534.706 4.66992L542.101 24.1279L547.549 38.1377L555.332 58.374L562.337 76.665L567.396 89.8965L568.952 93.7881V94.5664L565.061 93.7881L556.11 91.0635L554.554 88.7285L547.549 70.4385L545.214 64.9902L544.824 64.6006L530.426 64.2119L500.071 63.8223L498.125 67.7139L493.455 79L489.175 89.5068L486.84 94.1768H485.672L486.84 90.2852L493.066 73.9404L497.347 62.6553L501.238 52.5371L508.633 33.4678L515.638 14.7881L519.918 3.8916L521.864 0H532.371L534.706 4.66992ZM521.864 7.39453L517.194 18.6797L508.633 39.6943L501.628 57.9854L500.46 61.877H517.583L543.268 61.4873L544.046 61.0986V60.3203L536.652 41.251L531.204 27.2412L523.421 7.7832L522.253 7.00488L521.864 7.39453Z" fill="#F9ECE0"/>
<path d="M317.944 143.211L321.835 143.99L326.895 145.546L327.284 146.324L326.895 148.27L326.505 159.556L327.284 167.339L329.229 174.733L331.175 179.792L334.678 185.63L337.402 189.132L340.126 192.245L345.574 196.526L351.022 199.639L356.082 201.585L361.53 202.753H368.535L374.761 201.585L379.431 200.029L385.658 196.526L391.495 191.467L393.83 189.132L395.387 189.521L395.776 191.078L392.273 194.969L389.16 198.083L383.712 201.974L375.54 206.255L369.313 208.201L361.919 209.368H356.86L348.688 207.812L340.904 205.088L336.624 202.753L332.732 200.029L328.062 195.748L323.781 190.3L320.279 184.462L317.166 176.679L315.609 169.674L314.831 161.891L315.609 152.94L317.555 143.6L317.944 143.211Z" fill="#F9ECE0"/>
<path d="M351.801 115.581H362.697L370.091 117.137L379.431 120.251L380.209 120.64L379.431 122.197L376.318 126.088L374.372 125.699L369.313 122.586L364.254 120.251L360.751 119.083L357.249 118.694L351.022 119.083L345.574 120.64L340.904 123.364L337.013 126.866L333.51 131.147L329.229 137.763L321.835 135.428L322.225 133.871L325.727 129.201L330.786 124.142L335.845 120.64L340.515 118.305L347.131 116.359L351.801 115.581Z" fill="#F9ECE0"/>
<path d="M387.214 125.31L389.16 126.088L395.776 131.536V156.443L394.998 155.275L391.106 145.546L387.604 139.32L384.101 135.039L382.155 132.704L382.544 131.147L386.047 126.866L387.214 125.31Z" fill="#F9ECE0"/>
</svg>
