<svg width="2437" height="281" viewBox="0 0 2437 281" fill="none" xmlns="http://www.w3.org/2000/svg">
<path d="M678.594 2.6875H827.75L826.406 8.0625L787.438 65.8438L756.531 112.875L717.562 172L716.219 174.688H755.188L749.812 178.719L748.469 181.406H745.781L744.438 184.094L761.906 185.438L790.125 192.156H794.156L795.5 189.469L799.531 188.125L800.875 184.094L815.656 188.125L831.781 193.5L857.312 205.594L873.438 210.969L880.156 212.312H900.312L915.094 206.938L924.5 198.875L932.562 182.75L933.906 167.969L931.219 150.5L923.156 130.344L912.406 116.906L908.375 112.875V110.188L903 108.844V106.156H898.969V103.469L892.25 102.125L890.906 107.5L870.75 161.25L868.062 167.969V185.438H843.875L854.625 163.938L868.062 127.656L876.125 107.5L885.531 80.625L905.688 26.875L908.375 18.8125V9.40625L905.688 4.03125L907.031 2.6875H941.969L967.5 71.2188L984.969 118.25L1003.78 167.969L1010.5 180.062L1013.19 185.438H968.844L971.531 177.375L952.719 124.969L932.562 71.2188L919.125 34.9375L916.438 37.625L908.375 60.4688L900.312 81.9688V88.6875L917.781 99.4375L931.219 112.875L940.625 127.656L947.344 146.469L948.688 155.875V178.719L943.312 197.531L932.562 212.312L919.125 221.719L901.656 227.094H876.125L855.969 221.719L810.281 202.906L778.031 192.156L749.812 186.781L673.219 185.438V182.75L686.656 181.406V177.375L681.281 172L693.375 153.188L697.406 143.781L764.594 43L782.062 17.4688L783.406 13.4375L688 14.7812L681.281 18.8125L675.906 20.1562L677.25 4.03125L678.594 2.6875Z" fill="#F9ECE0"/>
<path d="M305.031 4.03125H342.656L338.625 12.0938L337.281 172H364.156L380.281 174.688L405.812 184.094L425.969 196.188L451.5 215L470.312 231.125L489.125 244.562L510.625 255.312L532.125 262.031H564.375L581.844 256.656L599.312 247.25L606.031 241.875L618.125 227.094L627.531 209.625L632.906 178.719V165.281L628.875 141.094L624.844 134.375L620.812 124.969L608.719 111.531L606.031 106.156L600.656 104.812V102.125H596.625V99.4375L588.562 96.75L575.125 91.375L564.375 88.6875H533.469L518.688 94.0625L506.594 102.125L498.531 112.875L497.188 116.906L495.844 174.688H569.75L568.406 181.406L592.594 182.75V172L595.281 166.625L593.938 184.094L557.656 185.438H463.594V182.75H466.281L468.969 170.656V107.5L470.312 106.156V87.3438V84.6562L468.969 56.4375V32.25L470.312 22.8438L477.031 25.5312L481.062 29.5625H486.438L491.812 34.9375V37.625H489.125L491.812 40.3125L493.156 17.4688L494.5 12.0938L506.594 9.40625H518.688L534.812 10.75H572.438L585.875 12.0938L587.219 14.7812L495.844 13.4375V90.0312H493.156V94.0625L497.188 91.375H505.25V90.0312L501.219 88.6875L507.938 81.9688L521.375 76.5938H525.406V73.9062L532.125 72.5625H564.375L585.875 77.9375L606.031 88.6875L622.156 103.469L631.562 114.219L632.906 120.938H635.594L643.656 145.125L646.344 159.906V186.781L642.312 206.938L634.25 227.094L626.188 240.531L614.094 253.969L600.656 266.062L581.844 275.469L560.344 280.844H534.812L513.312 275.469L497.188 268.75L475.688 255.312L459.562 241.875L444.781 229.781L425.969 215L408.5 204.25L387 194.844L369.531 189.469L356.094 186.781L337.281 185.438H303.688L309.062 174.688L310.406 75.25L309.062 12.0938L305.031 4.03125Z" fill="#F9ECE0"/>
<path d="M1302.09 4.03125L1318.22 10.75L1335.69 24.1875L1347.78 38.9688L1357.19 57.7812L1361.22 76.5938V108.844L1355.84 130.344L1345.09 150.5L1333 163.938L1324.94 170.656L1318.22 173.344L1322.25 180.062L1334.34 193.5L1343.75 204.25L1357.19 215L1370.62 223.062L1384.06 227.094H1400.19L1412.28 223.062L1424.38 213.656L1436.47 198.875L1441.84 201.562L1444.53 205.594V217.688L1436.47 228.438L1421.69 237.844L1406.91 243.219L1388.09 244.562L1369.28 240.531L1345.09 228.438V225.75L1339.72 224.406L1320.91 206.938L1311.5 196.188L1302.09 184.094L1291.34 185.438L1283.28 186.781H1260.44L1242.97 184.094L1224.16 174.688L1220.12 173.344V170.656L1214.75 169.312V166.625L1208.03 163.938L1197.28 151.844L1187.88 135.719L1181.16 114.219L1179.81 104.812V81.9688L1183.84 63.1562L1190.56 47.0312L1198.62 34.9375L1210.72 21.5L1224.16 12.0938L1242.97 4.03125L1260.44 0H1284.62L1302.09 4.03125ZM1264.47 13.4375L1256.41 14.7812L1237.59 24.1875L1225.5 37.625L1217.44 52.4062L1212.06 69.875V108.844L1217.44 130.344L1224.16 145.125L1232.22 154.531L1245.66 166.625L1259.09 172L1276.56 173.344L1290 170.656V167.969L1283.28 161.25L1273.88 150.5L1268.5 149.156V146.469L1255.06 139.75H1242.97L1245.66 135.719L1253.72 130.344H1265.81L1284.62 139.75L1295.38 150.5L1304.78 161.25L1310.16 157.219L1318.22 146.469L1324.94 131.688L1330.31 110.188V77.9375L1326.28 60.4688L1319.56 45.6875L1311.5 33.5938L1302.09 22.8438L1292.69 20.1562V17.4688L1288.66 16.125L1275.22 13.4375H1264.47Z" fill="#F9ECE0"/>
<path d="M114.219 9.40625L126.312 17.4688L134.375 26.875L139.75 37.625L141.094 43V61.8125L135.719 75.25L127.656 84.6562L114.219 92.7188L110.188 94.0625L129 103.469L138.406 114.219L142.438 124.969V147.812L137.062 161.25L126.312 173.344L110.188 181.406L99.4375 184.094L86 185.438H1.34375L4.03125 180.062L6.71875 167.969V20.1562L4.03125 9.40625L0 4.03125H95.4062L114.219 9.40625ZM33.5938 13.4375L32.25 14.7812V167.969L33.5938 174.688H76.5938L84.6562 173.344L94.0625 169.312L103.469 161.25L110.188 150.5L112.875 138.406L111.531 124.969L107.5 115.562L98.0938 104.812L84.6562 98.0938L72.5625 96.75V90.0312H79.2812L88.6875 87.3438L99.4375 80.625L106.156 73.9062L111.531 60.4688V47.0312L110.188 40.3125L106.156 30.9062L100.781 24.1875L88.6875 16.125L76.5938 13.4375H33.5938Z" fill="#F9ECE0"/>
<path d="M678.594 2.6875H827.75L826.406 8.0625L787.438 65.8438L756.531 112.875L717.562 172L716.219 174.688H755.188L749.812 178.719L748.469 181.406H745.781L744.438 184.094L761.906 185.438L790.125 192.156H794.156L795.5 189.469L799.531 188.125L800.875 184.094L815.656 188.125L833.125 196.188L831.781 200.219L826.406 205.594L846.562 215L842.531 216.344L810.281 202.906L778.031 192.156L749.812 186.781L673.219 185.438V182.75L686.656 181.406V177.375L681.281 172L693.375 153.188L697.406 143.781L764.594 43L782.062 17.4688L783.406 13.4375L688 14.7812L681.281 18.8125L675.906 20.1562L677.25 4.03125L678.594 2.6875Z" fill="#F9ECE0"/>
<path d="M1545.31 2.6875H1674.31L1677 20.1562L1671.62 17.4688L1667.59 14.7812L1578.91 13.4375V87.3438L1644.75 86L1651.47 81.9688H1654.16V107.5L1646.09 103.469L1578.91 102.125V173.344L1667.59 172L1674.31 167.969H1677L1675.66 185.438H1545.31V182.75H1548L1549.34 177.375V12.0938L1545.31 5.375V2.6875Z" fill="#F9ECE0"/>
<path d="M1865.12 1.34375H1890.66L1906.78 5.375L1922.91 13.4375L1937.69 25.5312L1948.44 41.6562L1947.09 47.0312L1925.59 57.7812L1921.56 56.4375L1910.81 34.9375L1901.41 24.1875L1889.31 17.4688L1883.94 16.125H1863.78L1847.66 24.1875L1836.91 36.2812L1830.19 49.7188L1824.81 69.875L1823.47 80.625V96.75L1827.5 116.906L1834.22 134.375L1838.25 141.094L1844.97 147.812L1855.72 157.219L1862.44 162.594L1879.91 166.625H1898.72L1914.84 161.25L1925.59 153.188L1936.34 143.781L1947.09 142.438H1951.12L1948.44 150.5L1937.69 163.938L1926.94 173.344L1908.12 182.75L1897.38 185.438L1877.22 186.781L1857.06 184.094L1839.59 177.375L1830.19 172V169.312L1823.47 166.625L1811.38 153.188L1800.62 134.375L1796.59 123.625L1797.94 116.906L1796.59 111.531L1793.91 104.812H1796.59V102.125L1793.91 100.781V94.0625L1795.25 88.6875H1792.56L1793.91 77.9375L1795.25 68.5312L1797.94 57.7812L1808.69 36.2812L1812.72 30.9062H1815.41L1818.09 25.5312L1828.84 16.125L1843.62 8.0625L1865.12 1.34375Z" fill="#F9ECE0"/>
<path d="M1378.69 2.6875H1419V5.375L1413.62 10.75L1412.28 18.8125V111.531L1414.97 129L1420.34 143.781L1428.41 155.875L1439.16 165.281L1449.91 169.312H1471.41L1484.84 165.281L1495.59 157.219L1500.97 150.5L1507.69 137.062L1511.72 120.938L1513.06 111.531V16.125L1510.38 8.0625L1507.69 2.6875H1533.22L1530.53 8.0625L1527.84 12.0938L1526.5 114.219L1522.47 138.406L1515.75 154.531L1507.69 166.625L1498.28 176.031L1480.81 184.094L1467.38 186.781H1453.94L1435.12 184.094L1419 178.719V176.031H1414.97V173.344L1409.59 172L1400.19 162.594L1390.78 146.469L1385.41 126.312L1384.06 114.219V40.3125L1382.72 10.75L1378.69 5.375V2.6875Z" fill="#F9ECE0"/>
<path d="M505.25 9.40625H518.688L534.812 10.75H572.438L585.875 12.0938L587.219 14.7812L495.844 13.4375V90.0312H493.156V94.0625L497.188 91.375H505.25V90.0312L501.219 88.6875L507.938 81.9688L521.375 76.5938H525.406V73.9062L532.125 72.5625H564.375L585.875 77.9375L606.031 88.6875L622.156 103.469L631.562 114.219L632.906 120.938H635.594L640.969 142.438L645 162.594V180.062L643.656 190.812L640.969 188.125L634.25 189.469L630.219 205.594L628.875 200.219L632.906 178.719V165.281L628.875 141.094L624.844 134.375L620.812 124.969L608.719 111.531L606.031 106.156L600.656 104.812V102.125H596.625V99.4375L588.562 96.75L575.125 91.375L564.375 88.6875H533.469L518.688 94.0625L506.594 102.125L498.531 112.875L497.188 116.906L495.844 174.688H569.75L568.406 181.406L592.594 182.75V172L595.281 166.625L593.938 184.094L557.656 185.438H463.594V182.75H466.281L468.969 170.656V107.5L470.312 106.156V87.3438V84.6562L468.969 56.4375V32.25L470.312 22.8438L477.031 25.5312L481.062 29.5625H486.438L491.812 34.9375V37.625H489.125L491.812 40.3125L493.156 17.4688L494.5 12.0938L505.25 9.40625Z" fill="#F9ECE0"/>
<path d="M157.219 4.03125H286.219L287.562 20.1562L282.188 17.4688L278.156 14.7812H190.812V87.3438H253.969L263.375 83.3125V107.5L258 104.812L189.469 103.469V174.688L278.156 173.344L286.219 167.969L288.906 166.625L287.562 182.75L286.219 184.094L274.125 185.438H158.562V181.406L162.594 177.375V13.4375L158.562 6.71875L157.219 4.03125Z" fill="#F9ECE0"/>
<path d="M2006.22 2.6875V6.71875L2002.19 16.125V116.906L2006.22 137.062L2014.28 153.188L2019.66 159.906L2033.09 167.969L2042.5 170.656H2061.31L2076.09 165.281L2088.19 154.531L2098.94 133.031L2101.62 123.625L2102.97 111.531V16.125L2098.94 6.71875V2.6875H2120.44V6.71875L2116.41 12.0938L2115.06 116.906L2111.03 139.75L2104.31 155.875L2093.56 170.656L2080.12 180.062L2064 185.438L2055.94 186.781H2038.47L2019.66 182.75L2000.84 173.344L1990.09 162.594L1980.69 146.469L1975.31 124.969L1973.97 14.7812L1968.59 4.03125L2006.22 2.6875Z" fill="#F9ECE0"/>
<path d="M2244.06 5.375L2260.19 12.0938L2273.62 24.1875L2280.34 34.9375L2284.38 49.7188V71.2188L2279 87.3438L2269.59 99.4375L2260.19 107.5L2246.75 114.219L2236 116.906L2223.91 118.25H2199.72L2194.34 116.906L2203.75 131.688L2218.53 153.188L2231.97 172L2242.72 185.438L2253.47 197.531L2270.94 209.625L2288.41 215H2304.53L2320.66 210.969L2334.09 201.562L2343.5 190.812L2348.88 178.719L2351.56 165.281L2350.22 147.812L2343.5 131.688L2334.09 118.25L2323.34 108.844L2315.28 104.812L2311.25 119.594L2292.44 170.656V185.438H2268.25V182.75L2274.97 177.375L2285.72 150.5L2300.5 110.188L2319.31 59.125L2334.09 18.8125V9.40625L2331.41 4.03125L2365 2.6875L2371.72 18.8125L2390.53 69.875L2422.78 155.875L2430.84 176.031L2436.22 182.75V185.438H2393.22L2395.91 176.031L2382.47 137.062L2360.97 79.2812L2346.19 38.9688L2344.84 32.25H2342.16L2340.81 38.9688L2326.03 80.625L2322 92.7188L2330.06 95.4062L2343.5 106.156L2354.25 118.25L2363.66 137.062L2366.34 149.156V169.312L2362.31 185.438L2355.59 198.875L2342.16 213.656L2326.03 223.062L2304.53 228.438H2287.06L2273.62 225.75L2257.5 219.031L2244.06 209.625L2230.62 197.531L2217.19 182.75L2198.38 157.219L2184.94 139.75L2172.84 123.625L2167.47 118.25V177.375L2172.84 184.094L2171.5 185.438H2133.88L2132.53 182.75L2137.91 177.375L2139.25 172V24.1875L2137.91 12.0938L2136.56 6.71875L2132.53 5.375V4.03125L2143.28 2.6875H2222.56L2244.06 5.375ZM2166.12 13.4375V99.4375L2182.25 103.469H2219.88L2226.59 102.125L2236 98.0938L2245.41 90.0312L2252.12 76.5938L2254.81 61.8125L2253.47 44.3438L2250.78 37.625L2242.72 25.5312L2230.62 17.4688L2214.5 13.4375H2166.12Z" fill="#F9ECE0"/>
<path d="M1835.56 141.094L1840.94 142.438L1850.34 153.188L1859.75 159.906L1862.44 162.594L1879.91 166.625H1898.72L1914.84 161.25L1925.59 153.188L1936.34 143.781L1947.09 142.438H1951.12L1948.44 150.5L1937.69 163.938L1926.94 173.344L1908.12 182.75L1897.38 185.438L1877.22 186.781L1857.06 184.094L1839.59 177.375L1830.19 172V169.312L1823.47 166.625L1815.41 158.562L1816.75 153.188L1820.78 149.156L1822.12 150.5L1824.81 147.812L1827.5 149.156V151.844L1824.81 153.188V157.219H1827.5L1826.16 153.188H1828.84V155.875H1831.53L1828.84 150.5L1832.88 143.781H1835.56V141.094Z" fill="#F9ECE0"/>
<path d="M760.562 102.125V106.156L747.125 127.656L717.562 172L716.219 174.688H755.188L749.812 178.719L748.469 181.406H745.781L744.438 184.094L761.906 185.438L790.125 192.156H794.156L795.5 189.469L799.531 188.125L800.875 184.094L815.656 188.125L833.125 196.188L831.781 200.219L826.406 205.594L846.562 215L842.531 216.344L810.281 202.906L778.031 192.156L749.812 186.781L673.219 185.438V182.75L686.656 181.406V177.375L681.281 172L694.719 150.5L698.75 147.812L702.781 150.5H706.812V153.188L712.188 154.531L718.906 155.875L721.594 159.906L759.219 103.469L760.562 102.125Z" fill="#F9ECE0"/>
<path d="M532.125 72.5625H564.375L585.875 77.9375L606.031 88.6875L622.156 103.469L631.562 114.219L632.906 120.938H635.594L640.969 142.438L645 162.594V180.062L643.656 190.812L640.969 188.125L634.25 189.469L630.219 205.594L628.875 200.219L632.906 178.719V165.281L628.875 141.094L624.844 134.375L620.812 124.969L608.719 111.531L606.031 106.156L600.656 104.812V102.125H596.625V99.4375L588.562 96.75L583.188 94.0625L581.844 91.375L573.781 88.6875L576.469 87.3438L577.812 83.3125L583.188 86V83.3125L580.5 81.9688L579.156 80.625V77.9375H572.438L567.062 76.5938L561.688 77.9375L556.312 76.5938V81.9688L559 84.6562H540.188L544.219 81.9688L534.812 79.2812L532.125 76.5938L525.406 75.25V73.9062L532.125 72.5625Z" fill="#F9ECE0"/>
<path d="M1597.72 4.03125H1670.28L1671.62 5.375V12.0938L1670.28 14.7812H1578.91L1577.56 87.3438H1576.22L1574.88 63.1562V65.8438V69.875H1572.19V67.1875H1569.5V69.875H1566.81L1565.47 67.1875L1562.78 71.2188L1557.41 67.1875L1558.75 61.8125H1556.06V59.125L1553.38 57.7812V53.75V36.2812H1556.06V33.5938L1553.38 32.25V30.9062L1556.06 24.1875L1562.78 17.4688H1565.47V22.8438L1570.84 28.2188H1573.53L1574.88 25.5312L1573.53 32.25H1576.22V12.0938L1578.91 10.75L1599.06 9.40625L1597.72 4.03125Z" fill="#F9ECE0"/>
<path d="M462.25 2.6875H592.594L593.938 5.375L595.281 18.8125L592.594 20.1562L589.906 18.8125V16.125H587.219L585.875 13.4375L568.406 12.0938H530.781L517.344 10.75H505.25L494.5 12.0938L493.156 49.7188H491.812L490.469 41.6562L489.125 37.625H491.812L486.438 32.25V29.5625L481.062 30.9062L477.031 28.2188V25.5312L473 26.875L471.656 24.1875L470.312 32.25V65.8438L467.625 63.1562V18.8125L464.938 8.0625L462.25 2.6875Z" fill="#F9ECE0"/>
<path d="M1835.56 141.094L1840.94 142.438L1850.34 153.188L1859.75 159.906L1862.44 162.594L1879.91 166.625V167.969H1871.84L1869.16 166.625V169.312H1866.47L1865.12 172L1858.41 167.969L1857.06 170.656H1854.38L1857.06 172L1854.38 180.062L1847.66 178.719L1830.19 172V169.312L1823.47 166.625L1815.41 158.562L1816.75 153.188L1820.78 149.156L1822.12 150.5L1824.81 147.812L1827.5 149.156V151.844L1824.81 153.188V157.219H1827.5L1826.16 153.188H1828.84V155.875H1831.53L1828.84 150.5L1832.88 143.781H1835.56V141.094Z" fill="#F9ECE0"/>
<path d="M525.406 75.25L536.156 76.5938L541.531 80.625L546.906 81.9688L545.562 83.3125H554.969L553.625 79.2812H556.312V76.5938H564.375L571.094 75.25L583.188 79.2812V83.3125V86L577.812 84.6562V88.6875L583.188 91.375L579.156 92.7188L564.375 88.6875H533.469L518.688 94.0625L506.594 102.125L502.562 106.156L499.875 104.812L511.969 94.0625L510.625 90.0312H502.562V86L513.312 79.2812L525.406 75.25Z" fill="#F9ECE0"/>
<path d="M1597.72 4.03125H1670.28L1671.62 5.375V12.0938L1670.28 14.7812H1578.91L1577.56 34.9375L1574.88 32.25L1576.22 12.0938L1578.91 10.75L1599.06 9.40625L1597.72 4.03125Z" fill="#F9ECE0"/>
<path d="M716.219 172L760.562 173.344L790.125 178.719L812.969 185.438L815.656 188.125L803.562 185.438L800.875 184.094L799.531 189.469H795.5L794.156 193.5L779.375 190.812L753.844 185.438L744.438 184.094L745.781 180.062L748.469 178.719L752.5 176.031L716.219 174.688V172Z" fill="#F9ECE0"/>
<path d="M1941.72 147.812L1944.41 151.844L1936.34 162.594L1926.94 170.656L1908.12 180.062L1898.72 181.406L1901.41 180.062L1902.75 170.656L1879.91 169.312V167.969L1898.72 166.625L1914.84 161.25L1930.97 149.156L1936.34 150.5L1939.03 149.156V151.844H1941.72V147.812Z" fill="#F9ECE0"/>
<path d="M825.062 192.156L831.781 193.5L857.312 205.594L873.438 210.969L889.562 213.656L885.531 215V217.688L876.125 215L874.781 217.688L872.094 215L865.375 219.031L862.688 217.688V220.375L850.594 217.688L822.375 205.594L829.094 200.219H831.781L830.438 196.188L825.062 192.156Z" fill="#F9ECE0"/>
<path d="M1596.38 88.6875H1616.53H1619.22H1628.62V95.4062L1629.97 96.75L1631.31 91.375L1635.34 94.0625L1634 96.75V99.4375L1647.44 100.781L1650.12 102.125L1648.78 104.812L1646.09 103.469H1578.91L1577.56 173.344H1576.22V102.125L1577.56 100.781L1599.06 99.4375L1593.69 94.0625L1596.38 88.6875Z" fill="#F9ECE0"/>
<path d="M638.281 138.406L640.969 142.438L645 162.594V180.062L643.656 190.812L640.969 188.125L634.25 189.469L630.219 205.594L628.875 200.219L632.906 178.719V165.281L630.219 145.125L632.906 141.094H638.281V138.406Z" fill="#F9ECE0"/>
<path d="M800.875 184.094L815.656 188.125L833.125 196.188L831.781 200.219L826.406 205.594L846.562 215L842.531 216.344L810.281 202.906L803.562 200.219L802.219 197.531L794.156 194.844L795.5 189.469L799.531 188.125L800.875 184.094Z" fill="#F9ECE0"/>
<path d="M1651.47 81.9688H1654.16V107.5L1650.12 106.156V102.125L1624.59 100.781L1627.28 98.0938H1632.66V94.0625L1629.97 88.6875L1631.31 87.3438L1644.75 86L1651.47 81.9688Z" fill="#F9ECE0"/>
<path d="M592.594 166.625L593.938 172L592.594 182.75H559L569.75 177.375V174.688L501.219 176.031L495.844 173.344L585.875 172L592.594 169.312V166.625Z" fill="#F9ECE0"/>
<path d="M624.844 114.219H628.875V116.906L632.906 118.25V120.938H635.594L638.281 133.031V141.094H634.25L632.906 143.781L630.219 145.125L624.844 134.375L620.812 124.969L615.438 118.25L616.781 115.562L619.469 118.25L624.844 114.219Z" fill="#F9ECE0"/>
<path d="M532.125 72.5625H564.375L581.844 76.5938L583.188 79.2812L579.156 80.625V77.9375H572.438L567.062 76.5938L561.688 77.9375L556.312 76.5938V81.9688L559 84.6562H540.188L544.219 81.9688L534.812 79.2812L532.125 76.5938L525.406 75.25V73.9062L532.125 72.5625Z" fill="#F9ECE0"/>
<path d="M872.094 213.656L874.781 215L878.812 213.656L884.188 216.344L885.531 220.375H882.844V223.062H873.438L884.188 224.406H897.625L915.094 220.375L923.156 217.688L919.125 221.719L901.656 227.094H876.125L855.969 221.719L846.562 217.688L850.594 216.344L862.688 220.375V217.688L868.062 216.344L872.094 213.656Z" fill="#F9ECE0"/>
<path d="M505.25 9.40625H518.688L534.812 10.75H572.438L585.875 12.0938L587.219 14.7812L495.844 13.4375V25.5312L493.156 24.1875L494.5 12.0938L505.25 9.40625Z" fill="#F9ECE0"/>
<path d="M1945.75 142.438H1949.78L1951.12 145.125L1941.72 159.906L1932.31 169.312L1914.84 180.062L1908.12 182.75L1902.75 181.406L1924.25 170.656L1935 162.594L1943.06 151.844L1937.69 150.5L1933.66 151.844L1930.97 149.156L1936.34 143.781L1945.75 142.438Z" fill="#F9ECE0"/>
<path d="M1795.25 60.4688L1797.94 63.1562L1796.59 73.9062L1795.25 79.2812V86H1792.56V88.6875H1795.25L1796.59 94.0625H1793.91L1796.59 104.812H1793.91L1796.59 111.531L1799.28 112.875V116.906L1797.94 120.938L1795.25 122.281L1791.22 100.781V83.3125L1795.25 60.4688Z" fill="#F9ECE0"/>
<path d="M1572.19 9.40625L1576.22 14.7812V32.25H1573.53V28.2188H1570.84L1569.5 30.9062V26.875L1565.47 25.5312V22.8438L1562.78 21.5L1566.81 14.7812H1569.5L1572.19 9.40625Z" fill="#F9ECE0"/>
<path d="M872.094 213.656L874.781 215L878.812 213.656L884.188 216.344L885.531 220.375H882.844V223.062L862.688 221.719V217.688L868.062 216.344L872.094 213.656Z" fill="#F9ECE0"/>
<path d="M491.812 71.2188H493.156V90.0312L491.812 87.3438L485.094 86H479.719L475.688 87.3438L477.031 81.9688H479.719L478.375 77.9375H483.75L487.781 79.2812V75.25H490.469L491.812 71.2188Z" fill="#F9ECE0"/>
<path d="M682.625 166.625L683.969 169.312L682.625 173.344L688 177.375V181.406V182.75H673.219L681.281 167.969L682.625 166.625Z" fill="#F9ECE0"/>
<path d="M1945.75 142.438H1949.78L1951.12 145.125L1945.75 150.5L1939.03 151.844H1933.66L1930.97 149.156L1936.34 143.781L1945.75 142.438Z" fill="#F9ECE0"/>
<path d="M1562.78 17.4688H1565.47V22.8438L1566.81 30.9062L1561.44 32.25L1558.75 34.9375L1557.41 29.5625L1553.38 30.9062L1556.06 24.1875L1562.78 17.4688Z" fill="#F9ECE0"/>
<path d="M1853.03 167.969H1858.41L1865.12 170.656L1866.47 178.719L1865.12 176.031H1861.09L1859.75 181.406L1855.72 180.062L1854.38 173.344V172L1853.03 167.969Z" fill="#F9ECE0"/>
<path d="M1793.91 96.75L1796.59 102.125V104.812H1793.91L1796.59 111.531L1799.28 112.875V116.906L1797.94 120.938L1795.25 122.281L1791.22 100.781V98.0938L1793.91 96.75Z" fill="#F9ECE0"/>
<path d="M505.25 81.9688L507.938 83.3125L502.562 88.6875L507.938 90.0312L505.25 92.7188H497.188L490.469 95.4062L493.156 90.0312L505.25 81.9688Z" fill="#F9ECE0"/>
<path d="M615.438 115.562L619.469 118.25H624.844L627.531 120.938H624.844L626.188 127.656H622.156L615.438 118.25V115.562Z" fill="#F9ECE0"/>
<path d="M546.906 77.9375L556.312 80.625L559 84.6562H540.188L545.562 81.9688L546.906 77.9375Z" fill="#F9ECE0"/>
<path d="M282.188 8.0625H284.875V12.0938H287.562V20.1562L282.188 17.4688L279.5 12.0938L282.188 8.0625Z" fill="#F9ECE0"/>
<path d="M478.375 77.9375H481.062V80.625H486.438L485.094 86H479.719L475.688 87.3438L477.031 81.9688H479.719L478.375 77.9375Z" fill="#F9ECE0"/>
<path d="M1819.44 87.3438H1820.78L1822.12 107.5L1819.44 106.156V103.469H1816.75V100.781L1814.06 99.4375L1816.75 98.0938L1819.44 99.4375V96.75H1816.75L1819.44 87.3438Z" fill="#F9ECE0"/>
<path d="M503.906 94.0625L507.938 98.0938L499.875 104.812L497.188 103.469V99.4375H501.219V95.4062L503.906 94.0625Z" fill="#F9ECE0"/>
<path d="M1861.09 162.594L1879.91 166.625V167.969H1871.84L1869.16 166.625V169.312H1863.78V166.625L1861.09 165.281V162.594Z" fill="#F9ECE0"/>
</svg>
